<?xml version="1.0" encoding="UTF-8"?>
<svg width="24px" height="24px" viewBox="0 0 24 24" version="1.1" xmlns="http://www.w3.org/2000/svg" xmlns:xlink="http://www.w3.org/1999/xlink">
    <title>park</title>
    <g id="General" stroke="none" stroke-width="1" fill="none" fill-rule="evenodd">
        <g id="park" fill="#29333B">
            <path d="M12.0091,1.495 C16.0891,1.495 19.5191,4.705 19.6491,8.655 C19.6691,9.495 19.5191,10.415 19.1991,11.295 L19.2991,11.355 L18.7891,12.265 L13.7091,21.505 C13.3791,22.115 12.7091,22.505 11.9991,22.505 C11.2891,22.505 10.6291,22.115 10.2891,21.495 L4.69912,11.345 L4.78912,11.285 C4.50912,10.485 4.34912,9.635 4.34912,8.875 C4.34912,4.805 7.78912,1.495 12.0091,1.495 Z M16.5491,12.085 L17.0691,11.235 C17.4591,10.435 17.6691,9.495 17.6491,8.705 C17.5491,5.885 14.9691,3.495 12.0091,3.495 C8.88912,3.495 6.34912,5.915 6.34912,8.875 C6.34912,9.595 6.55912,10.465 6.89912,11.215 L7.39912,12.075 L7.37912,12.095 L12.0291,20.535 L16.5891,12.115 L16.5491,12.085 Z M8.49902,9.145 C8.49902,7.215 10.069,5.645 11.999,5.645 C13.929,5.645 15.499,7.215 15.499,9.145 C15.499,11.075 13.929,12.645 11.999,12.645 C10.069,12.645 8.49902,11.075 8.49902,9.145 Z M10.499,9.145 C10.499,9.975 11.169,10.645 11.999,10.645 C12.829,10.645 13.499,9.975 13.499,9.145 C13.499,8.315 12.829,7.645 11.999,7.645 C11.169,7.645 10.499,8.315 10.499,9.145 Z" id="Shape"></path>
        </g>
    </g>
</svg>